<svg id="レイヤー_1" data-name="レイヤー 1" xmlns="http://www.w3.org/2000/svg" viewBox="0 0 750.87 152.05"><title>logo</title><path d="M339.36,264.35H313.09a2.28,2.28,0,0,0-2.2,2.31v71.26a2.28,2.28,0,0,0,2.2,2.31h26.27A37.94,37.94,0,1,0,339.36,264.35Zm-11.15,16.35h10.07c11.82,0,20.73,9.24,20.73,21.48s-8.91,21.59-20.73,21.59H328.21V280.69Z" transform="translate(-52 -225.87)"/><path d="M456.26,264.35H411.69a2.31,2.31,0,0,0-2.31,2.31v71.26a2.31,2.31,0,0,0,2.31,2.31h44.57a2.31,2.31,0,0,0,2.3-2.31V326.18a2.31,2.31,0,0,0-2.3-2.31H426.7v-14H451a2.31,2.31,0,0,0,2.31-2.31V295.82a2.37,2.37,0,0,0-2.31-2.31H426.7V280.69h29.56a2.31,2.31,0,0,0,2.3-2.31V266.65A2.31,2.31,0,0,0,456.26,264.35Z" transform="translate(-52 -225.87)"/><path d="M524.39,264.35H498.45a2.31,2.31,0,0,0-2.31,2.31v71.26a2.31,2.31,0,0,0,2.31,2.31h12.7a2.37,2.37,0,0,0,2.31-2.31v-25h11A24.27,24.27,0,1,0,524.39,264.35Zm-10.93,16.35h10a8,8,0,0,1,8.25,7.7,8.16,8.16,0,0,1-8.25,8.25h-10V280.69Z" transform="translate(-52 -225.87)"/><path d="M604.36,264.6a2.46,2.46,0,0,0-2.07-1.33h-1.08a2.45,2.45,0,0,0-2.06,1.33l-33.7,72.45a2.23,2.23,0,0,0,.08,2.17,2.28,2.28,0,0,0,2,1h11.84a4.28,4.28,0,0,0,4.11-2.74l3.8-8.45h28.94l3.81,8.35c1,2.15,2,2.84,4,2.84H636a2.28,2.28,0,0,0,2-1,2.23,2.23,0,0,0,.08-2.17ZM594,313.86l7.72-17,7.83,17H594Z" transform="translate(-52 -225.87)"/><path d="M722.33,287.86a23.65,23.65,0,0,0-23.73-23.51H666.42a2.31,2.31,0,0,0-2.31,2.31v71.26a2.31,2.31,0,0,0,2.31,2.31h12.81a2.37,2.37,0,0,0,2.3-2.31V310.72h7l14.24,28.38a2.25,2.25,0,0,0,2,1.11h14.32a2.32,2.32,0,0,0,2.06-1.08,2.47,2.47,0,0,0,0-2.42l-14.61-27.09C716.28,305.59,722.33,297.27,722.33,287.86Zm-25.13,8.67H681.53V280.26h15.67a8,8,0,0,1,7.92,7.92C705.12,292.63,701.42,296.53,697.21,296.53Z" transform="translate(-52 -225.87)"/><path d="M800.56,264.35h-47.8a2.31,2.31,0,0,0-2.31,2.31v11.73a2.31,2.31,0,0,0,2.31,2.31H767.9v57.22a2.37,2.37,0,0,0,2.31,2.31h12.92a2.37,2.37,0,0,0,2.3-2.31V280.69h15.13a2.31,2.31,0,0,0,2.3-2.31V266.65A2.31,2.31,0,0,0,800.56,264.35Z" transform="translate(-52 -225.87)"/><path d="M152.39,228.29s0,0.06,0,.1v-0.19S152.39,228.26,152.39,228.29Z" transform="translate(-52 -225.87)"/><path d="M152.39,252.6s0,0.06,0,.1V252.5S152.39,252.56,152.39,252.6Z" transform="translate(-52 -225.87)"/><polygon points="2.42 122.91 2.42 122.91 2.42 122.91 2.42 122.91"/><path d="M157.92,225.88h-3.11a2.41,2.41,0,0,0-2.4,2.32v24.5a2.41,2.41,0,0,0,2.4,2.32h3.08a46.88,46.88,0,1,1,0,93.76v0l-103.46,0h0A2.42,2.42,0,0,0,52,351.2v24.3a2.42,2.42,0,0,0,2.42,2.42h103.5A76,76,0,1,0,157.92,225.88Z" transform="translate(-52 -225.87)"/><rect x="31.68" width="49.52" height="22.1" rx="2.42" ry="2.42"/><rect x="21.12" y="40.84" width="49.52" height="22.1" rx="2.42" ry="2.42"/><rect x="10.56" y="81.69" width="49.52" height="22.1" rx="2.42" ry="2.42"/></svg>