<?xml version="1.0" encoding="utf-8"?>
<!-- Generator: Adobe Illustrator 23.0.4, SVG Export Plug-In . SVG Version: 6.00 Build 0)  -->
<svg version="1.1" id="レイヤー_1" xmlns="http://www.w3.org/2000/svg" xmlns:xlink="http://www.w3.org/1999/xlink" x="0px"
	 y="0px" viewBox="0 0 750.9 152.1" style="enable-background:new 0 0 750.9 152.1;" xml:space="preserve">
<style type="text/css">
	.st0{fill:#FFFFFF;}
</style>
<title>logo</title>
<path class="st0" d="M287.4,38.5h-26.3c-1.2,0-2.2,1.1-2.2,2.3v71.3c0,1.2,1,2.3,2.2,2.3h26.3c21,0,37.9-17,37.9-37.9
	S308.3,38.5,287.4,38.5z M276.2,54.8h10.1c11.8,0,20.7,9.2,20.7,21.5s-8.9,21.6-20.7,21.6h-10.1V54.8L276.2,54.8z"/>
<path class="st0" d="M404.3,38.5h-44.6c-1.3,0-2.3,1-2.3,2.3v71.3c0,1.3,1,2.3,2.3,2.3h44.6c1.3,0,2.3-1,2.3-2.3v-11.7
	c0-1.3-1-2.3-2.3-2.3h-29.6V84H399c1.3,0,2.3-1,2.3-2.3V70c0-1.3-1-2.3-2.3-2.3h-24.3V54.8h29.6c1.3,0,2.3-1,2.3-2.3V40.8
	C406.6,39.5,405.5,38.5,404.3,38.5z"/>
<path class="st0" d="M472.4,38.5h-25.9c-1.3,0-2.3,1-2.3,2.3v71.3c0,1.3,1,2.3,2.3,2.3h12.7c1.3,0,2.3-1,2.3-2.3v-25h11
	c13.4,0,24.3-10.9,24.2-24.3S485.8,38.5,472.4,38.5z M461.5,54.8h10c4.4-0.1,8.1,3.3,8.2,7.7c0,4.5-3.6,8.2-8.1,8.2
	c-0.1,0-0.1,0-0.2,0h-10V54.8L461.5,54.8z"/>
<path class="st0" d="M552.4,38.7c-0.4-0.8-1.2-1.3-2.1-1.3h-1.1c-0.9,0-1.7,0.6-2.1,1.3l-33.7,72.4c-0.4,0.7-0.3,1.5,0.1,2.2
	c0.4,0.7,1.2,1,2,1h11.8c1.8,0,3.5-1,4.1-2.7l3.8-8.5h28.9l3.8,8.4c1,2.1,2,2.8,4,2.8h12c0.8,0,1.6-0.3,2-1c0.4-0.7,0.4-1.5,0.1-2.2
	L552.4,38.7z M542,88l7.7-17l7.8,17H542z"/>
<path class="st0" d="M670.3,62c-0.1-13-10.7-23.6-23.7-23.5h-32.2c-1.3,0-2.3,1-2.3,2.3V112c0,1.3,1,2.3,2.3,2.3h12.8
	c1.3,0,2.3-1.1,2.3-2.3V84.9h7l14.2,28.4c0.4,0.7,1.2,1.1,2,1.1h14.3c0.8,0,1.6-0.4,2.1-1.1c0.4-0.8,0.4-1.7,0-2.4l-14.6-27.1
	C664.3,79.7,670.3,71.4,670.3,62z M645.2,70.7h-15.7V54.4h15.7c4.4,0,7.9,3.6,7.9,7.9C653.1,66.8,649.4,70.7,645.2,70.7L645.2,70.7z
	"/>
<path class="st0" d="M748.6,38.5h-47.8c-1.3,0-2.3,1-2.3,2.3v11.7c0,1.3,1,2.3,2.3,2.3h15.1v57.2c0,1.3,1,2.3,2.3,2.3h12.9
	c1.3,0,2.3-1.1,2.3-2.3V54.8h15.1c1.3,0,2.3-1,2.3-2.3V40.8C750.9,39.5,749.8,38.5,748.6,38.5z"/>
<path class="st0" d="M100.4,2.4c0,0,0,0.1,0,0.1V2.4C100.4,2.3,100.4,2.4,100.4,2.4z"/>
<path class="st0" d="M100.4,26.7c0,0,0,0.1,0,0.1v-0.2C100.4,26.6,100.4,26.7,100.4,26.7z"/>
<polygon class="st0" points="2.4,122.9 2.4,122.9 2.4,122.9 "/>
<path class="st0" d="M105.9,0h-3.1c-1.3,0-2.4,1-2.4,2.3v24.5c0,1.3,1.1,2.3,2.4,2.3h3.1c25.9,0,46.9,21,46.9,46.9
	s-21,46.9-46.9,46.9l0,0H2.4l0,0c-1.3,0-2.4,1.1-2.4,2.4c0,0,0,0,0,0v24.3c0,1.3,1.1,2.4,2.4,2.4c0,0,0,0,0,0h103.5
	c42,0,76-34,76-76S147.9,0,105.9,0z"/>
<path class="st0" d="M34.1,0h44.7c1.3,0,2.4,1.1,2.4,2.4v17.3c0,1.3-1.1,2.4-2.4,2.4H34.1c-1.3,0-2.4-1.1-2.4-2.4V2.4
	C31.7,1.1,32.8,0,34.1,0z"/>
<path class="st0" d="M23.5,40.8h44.7c1.3,0,2.4,1.1,2.4,2.4v17.3c0,1.3-1.1,2.4-2.4,2.4H23.5c-1.3,0-2.4-1.1-2.4-2.4V43.3
	C21.1,41.9,22.2,40.8,23.5,40.8z"/>
<path class="st0" d="M13,81.7h44.7c1.3,0,2.4,1.1,2.4,2.4v17.3c0,1.3-1.1,2.4-2.4,2.4H13c-1.3,0-2.4-1.1-2.4-2.4V84.1
	C10.6,82.8,11.6,81.7,13,81.7z"/>
</svg>
