<svg version="1.1" id="レイヤー_1" xmlns="http://www.w3.org/2000/svg" x="0" y="0" viewBox="0 0 750.9 152.1" xml:space="preserve"><style>.st0{fill:#fff}</style><path class="st0" d="M287.4 38.5h-26.3c-1.2 0-2.2 1.1-2.2 2.3v71.3c0 1.2 1 2.3 2.2 2.3h26.3c21 0 37.9-17 37.9-37.9s-17-38-37.9-38zm-11.2 16.3h10.1c11.8 0 20.7 9.2 20.7 21.5s-8.9 21.6-20.7 21.6h-10.1V54.8zm128.1-16.3h-44.6c-1.3 0-2.3 1-2.3 2.3v71.3c0 1.3 1 2.3 2.3 2.3h44.6c1.3 0 2.3-1 2.3-2.3v-11.7c0-1.3-1-2.3-2.3-2.3h-29.6V84H399c1.3 0 2.3-1 2.3-2.3V70c0-1.3-1-2.3-2.3-2.3h-24.3V54.8h29.6c1.3 0 2.3-1 2.3-2.3V40.8c0-1.3-1.1-2.3-2.3-2.3zm68.1 0h-25.9c-1.3 0-2.3 1-2.3 2.3v71.3c0 1.3 1 2.3 2.3 2.3h12.7c1.3 0 2.3-1 2.3-2.3v-25h11c13.4 0 24.3-10.9 24.2-24.3s-10.9-24.3-24.3-24.3zm-10.9 16.3h10c4.4-.1 8.1 3.3 8.2 7.7 0 4.5-3.6 8.2-8.1 8.2h-10.2V54.8h.1zm90.9-16.1c-.4-.8-1.2-1.3-2.1-1.3h-1.1c-.9 0-1.7.6-2.1 1.3l-33.7 72.4c-.4.7-.3 1.5.1 2.2.4.7 1.2 1 2 1h11.8c1.8 0 3.5-1 4.1-2.7l3.8-8.5h28.9l3.8 8.4c1 2.1 2 2.8 4 2.8h12c.8 0 1.6-.3 2-1 .4-.7.4-1.5.1-2.2l-33.6-72.4zM542 88l7.7-17 7.8 17H542zm128.3-26c-.1-13-10.7-23.6-23.7-23.5h-32.2c-1.3 0-2.3 1-2.3 2.3V112c0 1.3 1 2.3 2.3 2.3h12.8c1.3 0 2.3-1.1 2.3-2.3V84.9h7l14.2 28.4c.4.7 1.2 1.1 2 1.1H667c.8 0 1.6-.4 2.1-1.1.4-.8.4-1.7 0-2.4l-14.6-27.1c9.8-4.1 15.8-12.4 15.8-21.8zm-25.1 8.7h-15.7V54.4h15.7c4.4 0 7.9 3.6 7.9 7.9 0 4.5-3.7 8.4-7.9 8.4zm103.4-32.2h-47.8c-1.3 0-2.3 1-2.3 2.3v11.7c0 1.3 1 2.3 2.3 2.3h15.1V112c0 1.3 1 2.3 2.3 2.3h12.9c1.3 0 2.3-1.1 2.3-2.3V54.8h15.1c1.3 0 2.3-1 2.3-2.3V40.8c.1-1.3-1-2.3-2.2-2.3zM100.4 2.4v.1-.1c0-.1 0 0 0 0zm0 24.3v.1-.2.1zm-98 96.2zM105.9 0h-3.1c-1.3 0-2.4 1-2.4 2.3v24.5c0 1.3 1.1 2.3 2.4 2.3h3.1c25.9 0 46.9 21 46.9 46.9s-21 46.9-46.9 46.9H2.4c-1.3 0-2.4 1.1-2.4 2.4v24.3c0 1.3 1.1 2.4 2.4 2.4h103.5c42 0 76-34 76-76s-34-76-76-76zM34.1 0h44.7c1.3 0 2.4 1.1 2.4 2.4v17.3c0 1.3-1.1 2.4-2.4 2.4H34.1c-1.3 0-2.4-1.1-2.4-2.4V2.4c0-1.3 1.1-2.4 2.4-2.4z"/><path class="st0" d="M23.5 40.8h44.7c1.3 0 2.4 1.1 2.4 2.4v17.3c0 1.3-1.1 2.4-2.4 2.4H23.5c-1.3 0-2.4-1.1-2.4-2.4V43.3c0-1.4 1.1-2.5 2.4-2.5zM13 81.7h44.7c1.3 0 2.4 1.1 2.4 2.4v17.3c0 1.3-1.1 2.4-2.4 2.4H13c-1.3 0-2.4-1.1-2.4-2.4V84.1c0-1.3 1-2.4 2.4-2.4z"/></svg>