<svg id="レイヤー_1" data-name="レイヤー 1" xmlns="http://www.w3.org/2000/svg" viewBox="0 0 750.87 152.05"><path d="M339.36 264.35h-26.27a2.28 2.28 0 0 0-2.2 2.31v71.26a2.28 2.28 0 0 0 2.2 2.31h26.27a37.94 37.94 0 1 0 0-75.88zm-11.15 16.35h10.07c11.82 0 20.73 9.24 20.73 21.48s-8.91 21.59-20.73 21.59h-10.07v-43.08zm128.05-16.35h-44.57a2.31 2.31 0 0 0-2.31 2.31v71.26a2.31 2.31 0 0 0 2.31 2.31h44.57a2.31 2.31 0 0 0 2.3-2.31v-11.74a2.31 2.31 0 0 0-2.3-2.31H426.7v-14H451a2.31 2.31 0 0 0 2.31-2.31v-11.74a2.37 2.37 0 0 0-2.31-2.31h-24.3v-12.82h29.56a2.31 2.31 0 0 0 2.3-2.31v-11.73a2.31 2.31 0 0 0-2.3-2.3zm68.13 0h-25.94a2.31 2.31 0 0 0-2.31 2.31v71.26a2.31 2.31 0 0 0 2.31 2.31h12.7a2.37 2.37 0 0 0 2.31-2.31v-25h11a24.27 24.27 0 1 0-.07-48.57zm-10.93 16.35h10a8 8 0 0 1 8.25 7.7 8.16 8.16 0 0 1-8.25 8.25h-10v-15.96zm90.9-16.1a2.46 2.46 0 0 0-2.07-1.33h-1.08a2.45 2.45 0 0 0-2.06 1.33l-33.7 72.45a2.23 2.23 0 0 0 .08 2.17 2.28 2.28 0 0 0 2 1h11.84a4.28 4.28 0 0 0 4.11-2.74l3.8-8.45h28.94l3.81 8.35c1 2.15 2 2.84 4 2.84H636a2.28 2.28 0 0 0 2-1 2.23 2.23 0 0 0 .08-2.17zM594 313.86l7.72-17 7.83 17H594zm128.33-26a23.65 23.65 0 0 0-23.73-23.51h-32.18a2.31 2.31 0 0 0-2.31 2.31v71.26a2.31 2.31 0 0 0 2.31 2.31h12.81a2.37 2.37 0 0 0 2.3-2.31v-27.2h7l14.24 28.38a2.25 2.25 0 0 0 2 1.11h14.32a2.32 2.32 0 0 0 2.06-1.08 2.47 2.47 0 0 0 0-2.42l-14.61-27.09c9.74-4.03 15.79-12.35 15.79-21.76zm-25.13 8.67h-15.67v-16.27h15.67a8 8 0 0 1 7.92 7.92c0 4.45-3.7 8.35-7.91 8.35zm103.36-32.18h-47.8a2.31 2.31 0 0 0-2.31 2.31v11.73a2.31 2.31 0 0 0 2.31 2.31h15.14v57.22a2.37 2.37 0 0 0 2.31 2.31h12.92a2.37 2.37 0 0 0 2.3-2.31v-57.23h15.13a2.31 2.31 0 0 0 2.3-2.31v-11.73a2.31 2.31 0 0 0-2.3-2.3zm-648.17-36.06v.1-.19.09zm0 24.31v.1-.2.1zm5.53-26.72h-3.11a2.41 2.41 0 0 0-2.4 2.32v24.5a2.41 2.41 0 0 0 2.4 2.32h3.08a46.88 46.88 0 1 1 0 93.76H54.43A2.42 2.42 0 0 0 52 351.2v24.3a2.42 2.42 0 0 0 2.42 2.42h103.5a76 76 0 1 0 0-152.04z" transform="translate(-52 -225.87)"/><rect x="31.68" width="49.52" height="22.1" rx="2.42" ry="2.42"/><rect x="21.12" y="40.84" width="49.52" height="22.1" rx="2.42" ry="2.42"/><rect x="10.56" y="81.69" width="49.52" height="22.1" rx="2.42" ry="2.42"/></svg>